<svg id="Layer_1" data-name="Layer 1" xmlns="http://www.w3.org/2000/svg" viewBox="0 0 177.52 81.83"><defs><style>.cls-1,.cls-2,.cls-3{fill:#231f20;}.cls-2{opacity:0.4;}.cls-3{opacity:0.6;}.cls-4{opacity:0.6;}</style></defs><title>Havas_Digital_havas_B&amp;amp;W</title><path class="cls-1" d="M61.68,30.82h2.5v8h0.06c0.82-1.83,3-2.59,4.8-2.59,4,0,5.24,2.3,5.24,5.57v10h-2.5V41.54a2.87,2.87,0,0,0-3.09-3.06c-3,0-4.51,2-4.51,4.77v8.6h-2.5v-21Z" transform="translate(-0.61 -0.4)"/><path class="cls-1" d="M91.22,51.79a3.38,3.38,0,0,1-1.8.41c-1.3,0-2.12-.71-2.12-2.36a6.76,6.76,0,0,1-5.36,2.36c-2.77,0-5-1.24-5-4.27,0-3.45,2.56-4.18,5.15-4.68,2.77-.53,5.12-0.35,5.12-2.24,0-2.18-1.8-2.53-3.39-2.53-2.12,0-3.68.65-3.8,2.89h-2.5c0.15-3.77,3.06-5.09,6.45-5.09,2.74,0,5.71.62,5.71,4.18v7.83c0,1.18,0,1.71.8,1.71a2.15,2.15,0,0,0,.77-0.15v1.94ZM87.15,44c-1,.71-2.86.74-4.54,1s-3.06.88-3.06,2.74C79.55,49.4,81,50,82.5,50c3.3,0,4.65-2.06,4.65-3.45V44Z" transform="translate(-0.61 -0.4)"/><path class="cls-1" d="M99.64,51.85H97L91.3,36.62h2.8l4.27,12.69h0.06l4.15-12.69h2.62Z" transform="translate(-0.61 -0.4)"/><path class="cls-1" d="M120.22,51.79a3.38,3.38,0,0,1-1.8.41c-1.3,0-2.12-.71-2.12-2.36a6.76,6.76,0,0,1-5.36,2.36c-2.77,0-5-1.24-5-4.27,0-3.45,2.56-4.18,5.15-4.68,2.77-.53,5.12-0.35,5.12-2.24,0-2.18-1.8-2.53-3.39-2.53-2.12,0-3.68.65-3.8,2.89h-2.5c0.15-3.77,3.06-5.09,6.45-5.09,2.74,0,5.71.62,5.71,4.18v7.83c0,1.18,0,1.71.79,1.71a2.15,2.15,0,0,0,.77-0.15v1.94ZM116.16,44c-1,.71-2.86.74-4.54,1s-3.06.88-3.06,2.74c0,1.65,1.41,2.24,2.94,2.24,3.3,0,4.65-2.06,4.65-3.45V44Z" transform="translate(-0.61 -0.4)"/><path class="cls-1" d="M123.9,47C124,49.29,125.93,50,128,50c1.56,0,3.68-.35,3.68-2.27s-2.47-2.27-5-2.83-5-1.38-5-4.3,3-4.33,5.68-4.33c3.36,0,6,1.06,6.24,4.77h-2.5c-0.18-1.94-1.88-2.56-3.53-2.56s-3.24.41-3.24,1.94c0,1.8,2.65,2.09,5,2.65,2.5,0.56,5,1.38,5,4.33,0,3.62-3.39,4.8-6.48,4.8-3.42,0-6.3-1.38-6.45-5.15h2.5Z" transform="translate(-0.61 -0.4)"/><rect class="cls-2" y="45.6" width="15.2" height="30.4"/><rect class="cls-3" width="15.2" height="30.4"/><polygon class="cls-1" points="0 30.4 0 45.6 30.4 45.6 30.4 76 45.6 76 45.6 45.6 45.6 30.4 0 30.4"/><g class="cls-4"><path class="cls-1" d="M71.65,63.62a3.78,3.78,0,0,0-2.52-.79,4.64,4.64,0,0,0-2.25.5,4,4,0,0,0-1.45,1.32,5.54,5.54,0,0,0-.78,1.89,10.31,10.31,0,0,0-.23,2.21,8.42,8.42,0,0,0,.25,2,5.49,5.49,0,0,0,.78,1.77,3.91,3.91,0,0,0,1.38,1.24,4.11,4.11,0,0,0,2,.47,4.07,4.07,0,0,0,2.88-1A4.36,4.36,0,0,0,73,70.59h2.54a7,7,0,0,1-2.09,4.33,6.58,6.58,0,0,1-4.58,1.52,7.88,7.88,0,0,1-3.06-.56,5.93,5.93,0,0,1-2.22-1.58,6.83,6.83,0,0,1-1.35-2.44,10.18,10.18,0,0,1-.45-3.12,11.13,11.13,0,0,1,.44-3.17A7.34,7.34,0,0,1,63.56,63a6.24,6.24,0,0,1,2.24-1.73,7.32,7.32,0,0,1,3.13-.63,9.16,9.16,0,0,1,2.41.31,5.89,5.89,0,0,1,2,1,5.2,5.2,0,0,1,1.42,1.62,6,6,0,0,1,.7,2.33H72.88A3.79,3.79,0,0,0,71.65,63.62Z" transform="translate(-0.61 -0.4)"/><path class="cls-1" d="M78,65.45a7.06,7.06,0,0,1,1.4-2.52,6.6,6.6,0,0,1,2.31-1.68,8.47,8.47,0,0,1,6.33,0,6.66,6.66,0,0,1,2.3,1.68,7.07,7.07,0,0,1,1.4,2.52,10.06,10.06,0,0,1,.47,3.12,9.92,9.92,0,0,1-.47,3.1,7.08,7.08,0,0,1-1.4,2.5A6.48,6.48,0,0,1,88,75.84a8.66,8.66,0,0,1-6.33,0,6.44,6.44,0,0,1-2.31-1.67,7.07,7.07,0,0,1-1.4-2.5,9.92,9.92,0,0,1-.47-3.1A10.06,10.06,0,0,1,78,65.45ZM80.5,71a5.11,5.11,0,0,0,1,1.78A4.38,4.38,0,0,0,83,73.89a4.59,4.59,0,0,0,3.66,0,4.38,4.38,0,0,0,1.51-1.1,5.12,5.12,0,0,0,1-1.78,8.34,8.34,0,0,0,0-4.88,5.29,5.29,0,0,0-1-1.8,4.32,4.32,0,0,0-1.51-1.11,4.59,4.59,0,0,0-3.66,0,4.31,4.31,0,0,0-1.51,1.11,5.27,5.27,0,0,0-1,1.8A8.34,8.34,0,0,0,80.5,71Z" transform="translate(-0.61 -0.4)"/><path class="cls-1" d="M106.46,80.39q-1.7,1.84-5.32,1.84A10.32,10.32,0,0,1,99,82a6.62,6.62,0,0,1-2-.76,4.63,4.63,0,0,1-1.48-1.38,3.9,3.9,0,0,1-.64-2.08h2.49a1.84,1.84,0,0,0,.42,1.14,3.09,3.09,0,0,0,1,.76,4.66,4.66,0,0,0,1.24.42,6.71,6.71,0,0,0,1.29.13,4.62,4.62,0,0,0,2.08-.42,3.9,3.9,0,0,0,1.4-1.17,4.85,4.85,0,0,0,.8-1.8,10.08,10.08,0,0,0,.25-2.31v-1h-0.06a4.19,4.19,0,0,1-1.95,2.06,6,6,0,0,1-2.76.66,6.65,6.65,0,0,1-3-.61A6.18,6.18,0,0,1,96,74a7,7,0,0,1-1.27-2.43,10,10,0,0,1-.42-2.94,11.52,11.52,0,0,1,.35-2.76,7.55,7.55,0,0,1,1.17-2.57A6.41,6.41,0,0,1,98,61.39a6.73,6.73,0,0,1,3.3-.75,5.59,5.59,0,0,1,2.63.63,4.43,4.43,0,0,1,1.87,1.89h0V61h2.34V74.83Q108.16,78.54,106.46,80.39Zm-3.17-6.8a4.09,4.09,0,0,0,1.39-1.35,6.16,6.16,0,0,0,.78-1.89,9.15,9.15,0,0,0,.25-2.11,8.31,8.31,0,0,0-.23-2,5.5,5.5,0,0,0-.75-1.74,3.89,3.89,0,0,0-1.33-1.24,4,4,0,0,0-2-.47,4.29,4.29,0,0,0-2,.45A4,4,0,0,0,98,64.5a5.13,5.13,0,0,0-.79,1.76,8.55,8.55,0,0,0-.25,2.08,10.38,10.38,0,0,0,.2,2,5.8,5.8,0,0,0,.7,1.86,4,4,0,0,0,1.32,1.35,3.8,3.8,0,0,0,2,.51A4,4,0,0,0,103.29,73.58Z" transform="translate(-0.61 -0.4)"/><path class="cls-1" d="M114.24,61v2.4h0.06a5.24,5.24,0,0,1,4.91-2.75,6.57,6.57,0,0,1,2.49.41,4.1,4.1,0,0,1,1.61,1.14,4.24,4.24,0,0,1,.86,1.74,9.38,9.38,0,0,1,.25,2.24v9.95h-2.49V65.88a3,3,0,0,0-.82-2.22,3,3,0,0,0-2.25-.82,5.07,5.07,0,0,0-2,.35,3.7,3.7,0,0,0-1.39,1,4.29,4.29,0,0,0-.83,1.51,6.1,6.1,0,0,0-.28,1.89v8.54H111.9V61h2.34Z" transform="translate(-0.61 -0.4)"/><path class="cls-1" d="M128.31,58.27v-3h2.49v3h-2.49ZM130.8,61V76.11h-2.49V61h2.49Z" transform="translate(-0.61 -0.4)"/><path class="cls-1" d="M141.12,61v2.19h-3v9.39a2.7,2.7,0,0,0,.07.7,0.71,0.71,0,0,0,.28.41,1.22,1.22,0,0,0,.57.19,8.46,8.46,0,0,0,1,0h1.14v2.19h-1.9a8.94,8.94,0,0,1-1.65-.13,2.43,2.43,0,0,1-1.11-.48,2.07,2.07,0,0,1-.63-1,5.77,5.77,0,0,1-.2-1.7V63.19H133V61h2.57V56.46h2.49V61h3Z" transform="translate(-0.61 -0.4)"/><path class="cls-1" d="M144,58.27v-3h2.49v3H144ZM146.5,61V76.11H144V61h2.49Z" transform="translate(-0.61 -0.4)"/><path class="cls-1" d="M154.52,76.11L148.9,61h2.78l4.24,12.61H156L160.1,61h2.6l-5.53,15.12h-2.66Z" transform="translate(-0.61 -0.4)"/><path class="cls-1" d="M175.7,75.15a6.86,6.86,0,0,1-4.27,1.29,7.77,7.77,0,0,1-3.15-.59A6.19,6.19,0,0,1,166,74.21a6.94,6.94,0,0,1-1.36-2.52,12.09,12.09,0,0,1-.51-3.19,9.08,9.08,0,0,1,.53-3.16,7.56,7.56,0,0,1,1.48-2.49,6.71,6.71,0,0,1,2.25-1.64,6.88,6.88,0,0,1,2.85-.58,6.21,6.21,0,0,1,3.35.83,6.63,6.63,0,0,1,2.14,2.12,8.4,8.4,0,0,1,1.11,2.81,12.06,12.06,0,0,1,.25,2.9H166.8a6,6,0,0,0,.23,1.89,4.26,4.26,0,0,0,.85,1.58,4.19,4.19,0,0,0,1.49,1.1,5.15,5.15,0,0,0,2.14.41,4.3,4.3,0,0,0,2.59-.73,3.54,3.54,0,0,0,1.33-2.22h2.46A6,6,0,0,1,175.7,75.15Zm-0.6-9.71a4.27,4.27,0,0,0-.91-1.36,4.32,4.32,0,0,0-1.35-.91,4.26,4.26,0,0,0-1.71-.34,4.33,4.33,0,0,0-1.74.34,4,4,0,0,0-1.33.92,4.38,4.38,0,0,0-.88,1.36,5.15,5.15,0,0,0-.38,1.65h8.69A5.09,5.09,0,0,0,175.1,65.44Z" transform="translate(-0.61 -0.4)"/></g></svg>